<svg xmlns="http://www.w3.org/2000/svg" viewBox="0 0 24 24" width="20" height="20">
  <path fill="#888" d="M12 0C5.37 0 0 5.37 0 12c0 5.31 3.438 9.81 8.206 11.42.6.11.82-.26.82-.58 0-.29-.01-1.05-.01-2.06-3.006.55-3.856-1.45-3.856-1.45-.52-1.32-1.27-1.67-1.27-1.67-1.03-.71.08-.7.08-.7 1.14.08 1.74 1.17 1.74 1.17 1.01 1.73 2.65 1.23 3.3.94.1-.73.4-1.23.73-1.51-2.55-.29-5.24-1.28-5.24-5.71 0-1.26.45-2.29 1.17-3.1-.12-.3-.51-1.47.11-3.06 0 0 .97-.31 3.18 1.18.92-.26 1.91-.39 2.89-.39s1.97.13 2.89.39c2.21-1.49 3.18-1.18 3.18-1.18.62 1.59.23 2.76.11 3.06.73.81 1.17 1.84 1.17 3.1 0 4.44-2.69 5.42-5.25 5.71.41.36.78 1.08.78 2.18 0 1.57-.01 2.83-.01 3.22 0 .32.21.7.81.58C20.57 21.8 24 17.31 24 12c0-6.63-5.37-12-12-12z"/>
</svg>