<svg xmlns="http://www.w3.org/2000/svg" viewBox="0 0 24 24" width="20" height="20">
  <path fill="#888" d="M20.1 0H3.9C1.746 0 0 1.746 0 3.9v16.2C0 22.254 1.746 24 3.9 24h16.2c2.154 0 3.9-1.746 3.9-3.9V3.9C24 1.746 22.254 0 20.1 0zM7.573 19.992H4.84V9.915h2.733v10.077zM6.208 8.617a1.29 1.29 0 1 1-.001-2.581 1.29 1.29 0 0 1 .001 2.581zm13.77 11.375h-2.732v-5.574c0-1.32-.026-3.025-1.835-3.025-1.837 0-2.121 1.436-2.121 2.917v5.683H10.05V9.915h2.592v1.548h.037c.363-.688 1.248-1.415 2.556-1.415 2.732 0 3.243 1.802 3.243 4.146v5.798h-.001z"/>
</svg>